<?xml version="1.0" encoding="UTF-8"?> <svg xmlns="http://www.w3.org/2000/svg" width="180" height="38" viewBox="0 0 180 38" fill="none"><path fill-rule="evenodd" clip-rule="evenodd" d="M64.4217 4.00488L65.4642 3.71292C65.7614 3.59976 66.0929 3.49339 66.4587 3.3938C66.8245 3.29422 67.2361 3.16295 67.6933 3V28.0812L66.0404 28.5768C65.4596 28.7488 64.856 28.9434 64.2296 29.1607L62.1102 29.8397L61.4243 30.0502V27.2188C60.6847 28.0931 59.7868 28.823 58.7767 29.3712C57.9064 29.8197 56.939 30.0527 55.9578 30.0502C55.0613 30.0566 54.1773 29.842 53.3857 29.4255C52.5858 29.0078 51.8845 28.4269 51.328 27.7213C50.7111 26.9466 50.2458 26.0647 49.9562 25.1208C49.6224 24.0665 49.4581 22.9667 49.4692 21.8618C49.4588 20.4676 49.7196 19.0845 50.2374 17.788C50.7092 16.5684 51.407 15.447 52.2951 14.4814C53.1602 13.553 54.2021 12.803 55.361 12.2747C56.5634 11.7291 57.8726 11.4532 59.1952 11.4668C59.5515 11.4623 59.9076 11.4919 60.2583 11.555C60.6628 11.6349 61.0597 11.7485 61.4448 11.8945V4.81285L61.7947 4.73137C62.1742 4.64085 62.6154 4.52542 63.1185 4.3851L64.4217 4.00488ZM60.3406 27.5787C60.7523 27.3125 61.1221 26.9876 61.438 26.6145L61.4585 13.816C61.4736 13.3063 61.2949 12.8097 60.9579 12.4241C60.7885 12.2467 60.5827 12.1071 60.3544 12.0146C60.1262 11.9221 59.8806 11.8789 59.6342 11.8877C58.4955 11.8877 57.629 12.6459 57.0346 14.1622C56.3669 16.3272 56.0746 18.5885 56.1704 20.8501C56.1704 23.3215 56.399 25.1027 56.8563 26.1936C57.0298 26.6819 57.3561 27.1026 57.7879 27.3945C58.2197 27.6863 58.7343 27.8341 59.2569 27.8163C59.6326 27.8297 60.0057 27.748 60.3406 27.5787ZM16.2651 20.8976L10.3802 6.04178H3V29.5816H3.46641V7.56945L12.8837 30.7495L22.2873 7.03307V29.5816H29.3039V6.04178H22.2187L16.2651 20.8976ZM48.4608 15.9684C48.4578 15.2792 48.3586 14.5937 48.1658 13.9315C47.9457 13.3413 47.5661 12.8222 47.0684 12.431C46.1337 11.7519 44.9884 11.418 43.831 11.4872C43.2718 11.4896 42.7132 11.5214 42.1575 11.5822C41.248 11.6813 40.3455 11.8355 39.4551 12.0439C37.8801 12.4114 36.3472 12.9369 34.8801 13.6124C32.1366 14.8662 30.7648 16.3486 30.7648 18.0596C30.7483 18.3886 30.8013 18.7172 30.9203 19.0248C31.0393 19.3323 31.2217 19.6119 31.456 19.8457C31.6903 20.0795 31.9712 20.2625 32.2809 20.3828C32.5906 20.5032 32.9222 20.5583 33.2545 20.5446C33.7185 20.5572 34.1803 20.4765 34.6118 20.3073C35.0433 20.138 35.4356 19.8838 35.765 19.5601C36.4815 18.8481 36.9191 17.9073 36.9995 16.9054L37.1367 15.8326C37.2019 15.2252 37.333 14.6265 37.5276 14.0469C37.6583 13.648 37.8952 13.2915 38.2136 13.0148C38.465 12.82 38.7479 12.6685 39.0503 12.5668C39.3594 12.4412 39.6902 12.3766 40.0243 12.3766C40.4435 12.3655 40.8546 12.493 41.1924 12.7388C41.5303 12.9848 41.7757 13.3352 41.89 13.7346C42.0601 14.584 42.1406 15.4487 42.13 16.3146V19.0713C39.0139 19.8977 35.9968 21.0541 33.1311 22.5205C31.4896 23.4801 30.6687 24.7067 30.6687 26.2004C30.6562 26.7457 30.7806 27.2855 31.0308 27.7714C31.281 28.2573 31.6491 28.674 32.1023 28.9842C33.1734 29.736 34.4669 30.1134 35.7787 30.057C37.2967 30.098 38.7908 29.6761 40.0586 28.8484C40.4458 28.6111 40.8028 28.3284 41.1217 28.0065C41.5223 27.6055 41.885 27.1691 42.2054 26.7029C42.6627 28.9661 43.847 30.0977 45.7583 30.0977C46.7139 30.0861 47.6533 29.8536 48.5019 29.4188L49.0849 29.1065C49.0849 29.1065 48.5019 28.4275 48.5019 26.601L48.4608 15.9684ZM42.1575 25.1073C42.181 25.7664 41.9805 26.4144 41.5882 26.9474C41.3991 27.1735 41.1592 27.3526 40.8877 27.4706C40.6161 27.5884 40.3204 27.6417 40.0243 27.6263C39.7154 27.6361 39.4094 27.563 39.139 27.4148C38.8685 27.2666 38.6436 27.0488 38.4879 26.7844C38.0873 26.0382 37.9021 25.1972 37.9529 24.3536C37.9272 23.5942 38.0627 22.8378 38.3507 22.1334C38.6125 21.5343 39.0406 21.021 39.5853 20.6533C39.8907 20.4072 40.2333 20.2101 40.6005 20.0694C40.9342 19.9426 41.4441 19.7593 42.13 19.5194L42.1575 25.1073ZM87.3167 3C86.8594 3.16295 86.4478 3.29422 86.082 3.3938C85.7162 3.49338 85.3802 3.59749 85.0738 3.70613L84.0313 3.99809L82.7281 4.37831C82.2251 4.51863 81.7838 4.63405 81.4043 4.72459L81.0545 4.80606V11.8945C80.6693 11.7485 80.2724 11.6349 79.8679 11.555C79.5171 11.4922 79.1611 11.4627 78.8048 11.4667C77.4886 11.4584 76.1867 11.7365 74.9912 12.2815C73.8323 12.8098 72.7903 13.5598 71.9253 14.4882C71.037 15.4536 70.339 16.5751 69.8676 17.7948C69.3498 19.0914 69.089 20.4744 69.0994 21.8685C69.0882 22.9734 69.2526 24.0732 69.5864 25.1276C69.8757 26.0716 70.341 26.9536 70.9581 27.728C71.5147 28.4337 72.216 29.0145 73.0158 29.4323C73.8075 29.8487 74.6915 30.0634 75.588 30.0569C76.5693 30.06 77.5368 29.827 78.4069 29.3779C79.4174 28.8304 80.3154 28.1003 81.0545 27.2256V30.0569L81.7404 29.8465C82.5178 29.6066 83.2242 29.3802 83.8598 29.1675C84.4954 28.9548 85.099 28.7601 85.6705 28.5836L87.3235 28.0879L87.3167 3ZM81.0545 26.6145C80.7383 26.9873 80.3685 27.3121 79.957 27.5787C79.622 27.7477 79.2491 27.8295 78.8733 27.8163C78.3508 27.8341 77.8362 27.6863 77.4044 27.3944C76.9726 27.1026 76.6463 26.6819 76.4727 26.1936C76.0155 25.1027 75.7869 23.3215 75.7869 20.8501C75.6829 18.5923 75.9658 16.3334 76.6237 14.1691C77.218 12.6527 78.0846 11.8945 79.2232 11.8945C79.4697 11.8856 79.7152 11.9289 79.9434 12.0214C80.1717 12.1139 80.3775 12.2535 80.547 12.4309C80.8839 12.8164 81.0626 13.3131 81.0476 13.8228L81.0545 26.6145ZM101.096 23.0092C101.535 22.1537 101.908 21.4001 102.214 20.7482L106.631 11.9353H107.166L97.2004 31.7001C96.5274 33.2257 95.5391 34.595 94.2991 35.7196C93.3487 36.5402 92.1309 36.9935 90.8696 36.996C89.7784 37.0417 88.7077 36.6917 87.8586 36.0116C87.4837 35.6928 87.1857 35.2949 86.9863 34.8473C86.787 34.3998 86.6912 33.9136 86.7063 33.4247C86.6946 33.0211 86.768 32.6196 86.9215 32.2456C87.0749 31.8716 87.3054 31.5332 87.5979 31.252C87.8909 30.9699 88.2377 30.7484 88.6181 30.6003C88.9985 30.4523 89.4047 30.3806 89.8133 30.3896C90.3598 30.3738 90.9004 30.5053 91.3772 30.7699C91.9186 31.1084 92.3852 31.5518 92.7489 32.0736C92.8491 32.1837 92.943 32.2993 93.0302 32.4198C93.0998 32.5106 93.1754 32.5968 93.2565 32.6778C93.4036 32.866 93.5901 33.0205 93.8033 33.1307C94.0164 33.2408 94.251 33.3041 94.4911 33.3161C95.0129 33.2976 95.5061 33.0755 95.8629 32.6982C96.4251 32.0944 96.8879 31.4072 97.2347 30.6613L97.6329 29.8872L88.7159 11.9285H95.5748L97.516 15.819C97.5847 15.9887 97.6735 16.1653 97.7699 16.3418L101.096 23.0092ZM123.771 12.913C123.391 12.426 122.88 12.0543 122.297 11.8402C121.609 11.576 120.875 11.4468 120.136 11.46C119.574 11.4566 119.013 11.5135 118.463 11.6297L118.271 11.6773C117.795 11.8003 117.334 11.9781 116.899 12.2069C116.34 12.4941 115.81 12.8329 115.314 13.2185C114.706 13.7139 114.13 14.2492 113.593 14.8209V11.4668L112.167 11.9489L111.049 12.3087C110.839 12.3839 110.611 12.4561 110.394 12.5255C110.276 12.5627 110.162 12.5991 110.054 12.6347L108.943 12.947L107.777 13.3136L107.276 13.4426V29.5817H113.593V15.4049C114.294 14.6688 115.243 14.2142 116.262 14.1283C116.603 14.1301 116.938 14.219 117.235 14.3864C117.515 14.524 117.741 14.7481 117.88 15.0246C117.972 15.1824 118.043 15.3513 118.092 15.5271C118.145 15.7501 118.18 15.9773 118.195 16.206C118.218 16.4912 118.234 16.8646 118.244 17.3263V17.7472V29.5817H124.567V16.0838C124.558 15.496 124.498 14.9099 124.389 14.332C124.296 13.8184 124.085 13.3328 123.771 12.913ZM141.948 24.5843C142.306 24.3605 142.63 24.086 142.908 23.7696C143.227 23.3796 143.515 22.9665 143.772 22.5338L144.088 22.6696C143.877 23.2354 143.686 23.713 143.512 24.1022C143.369 24.4548 143.206 24.7993 143.025 25.1343C142.851 25.4466 142.666 25.7454 142.469 26.0305L141.783 26.9472C140.979 27.929 139.962 28.7183 138.806 29.2556C137.598 29.7955 136.284 30.0667 134.958 30.05C133.684 30.0655 132.419 29.8349 131.234 29.371C130.116 28.9412 129.096 28.2923 128.237 27.4632C127.383 26.6487 126.708 25.6687 126.255 24.5843C125.78 23.444 125.547 22.2191 125.569 20.9858C125.56 19.7125 125.814 18.4509 126.316 17.2786C126.798 16.1489 127.497 15.1228 128.374 14.2572C129.26 13.3906 130.306 12.6992 131.453 12.2203C133.712 11.306 136.229 11.2312 138.539 12.0098C139.501 12.3471 140.39 12.8608 141.159 13.5239C141.94 14.1938 142.58 15.0079 143.046 15.9207C143.541 16.9089 143.859 17.9749 143.985 19.0711H132.181C132.204 23.4708 134.188 25.6706 138.134 25.6706C139.489 25.7117 140.822 25.3318 141.948 24.5843ZM135.219 11.9623C134.218 11.9623 133.464 12.5326 132.956 13.6733C132.356 15.2559 132.081 16.9408 132.146 18.6298H137.633V17.6113V16.8509C137.625 16.6336 137.613 16.4276 137.599 16.233C137.586 16.0383 137.567 15.8256 137.544 15.5947C137.543 14.6302 137.308 13.6801 136.858 12.8246C136.689 12.5483 136.447 12.3224 136.159 12.1706C135.87 12.0189 135.545 11.9469 135.219 11.9623ZM155.809 18.2563L153.388 17.4824C151.139 16.7581 150.014 15.6898 150.014 14.2776C150.002 13.9639 150.057 13.6514 150.176 13.3601C150.294 13.0689 150.472 12.8055 150.699 12.5869C150.933 12.3649 151.208 12.1906 151.509 12.074C151.811 11.9575 152.132 11.9011 152.455 11.908C153.086 11.9195 153.703 12.0851 154.252 12.3901C154.918 12.7361 155.528 13.1776 156.063 13.7005C156.69 14.3208 157.252 15.0033 157.736 15.7374C158.286 16.5347 158.745 17.3883 159.109 18.2836H159.479L159.109 12.4987C157.985 12.1618 156.839 11.9031 155.68 11.7247C154.714 11.5632 153.736 11.477 152.757 11.4667C151.729 11.4572 150.706 11.6084 149.726 11.9148C148.853 12.1746 148.034 12.5836 147.305 13.1233C146.651 13.6241 146.104 14.2498 145.7 14.9633C145.307 15.6728 145.104 16.4697 145.11 17.2787C145.104 17.9067 145.234 18.5287 145.488 19.1043C145.741 19.6799 146.116 20.196 146.585 20.6192C147.558 21.5516 149.189 22.4026 151.474 23.1721L153.217 23.7696C154.181 24.0286 155.077 24.4919 155.844 25.1275C156.09 25.3818 156.281 25.6823 156.406 26.0112C156.533 26.3401 156.591 26.6907 156.578 27.0423C156.596 27.379 156.544 27.7158 156.426 28.0323C156.308 28.3487 156.127 28.6379 155.892 28.8823C155.642 29.1155 155.346 29.2961 155.023 29.4128C154.699 29.5295 154.356 29.58 154.012 29.5612C153.204 29.5514 152.409 29.3513 151.694 28.9773C150.856 28.5351 150.089 27.9722 149.417 27.307C148.611 26.5095 147.892 25.6312 147.27 24.6862C146.556 23.5709 145.932 22.4017 145.405 21.1895H145.041L145.405 28.2033L146.138 28.4817C146.337 28.5631 146.55 28.6378 146.77 28.7057C146.989 28.7737 147.208 28.8415 147.455 28.9094L148.43 29.1878C149.047 29.3824 149.582 29.5318 150.035 29.6359C150.487 29.74 150.905 29.8193 151.29 29.8735C151.634 29.9383 151.982 29.9836 152.332 30.0094C152.657 30.0319 152.989 30.0433 153.327 30.0433C154.403 30.0543 155.473 29.8914 156.495 29.5612C157.413 29.2732 158.266 28.8121 159.006 28.2033C159.695 27.6504 160.255 26.9553 160.645 26.1663C161.043 25.3686 161.245 24.4894 161.235 23.5998C161.25 23.0111 161.144 22.4256 160.922 21.8791C160.7 21.3327 160.368 20.8369 159.945 20.4222C158.751 19.3985 157.337 18.6577 155.809 18.2563ZM172.697 18.2563C174.219 18.6725 175.627 19.4272 176.811 20.463C177.24 20.8641 177.583 21.3471 177.817 21.8828C178.051 22.4185 178.173 22.9956 178.176 23.5795C178.187 24.469 177.985 25.3484 177.586 26.146C177.197 26.9349 176.637 27.6301 175.947 28.1829C175.207 28.7917 174.355 29.2528 173.437 29.5408C172.414 29.8711 171.344 30.0338 170.268 30.0229C169.93 30.0229 169.598 30.0115 169.274 29.9889C168.924 29.9632 168.575 29.9179 168.231 29.8531C167.847 29.7988 167.429 29.7196 166.976 29.6155C166.523 29.5114 165.988 29.3621 165.371 29.1673L164.397 28.889C164.15 28.8211 163.931 28.7532 163.711 28.6853C163.492 28.6174 163.279 28.5427 163.08 28.4613L162.346 28.1829L161.982 21.1692H162.346C162.875 22.3813 163.499 23.5505 164.212 24.6659C164.828 25.6294 165.546 26.5261 166.352 27.341C167.023 28.0061 167.791 28.569 168.629 29.0112C169.344 29.3852 170.139 29.5853 170.947 29.5952C171.291 29.614 171.634 29.5634 171.957 29.4467C172.281 29.33 172.577 29.1495 172.827 28.9162C173.061 28.6718 173.243 28.3826 173.361 28.0661C173.479 27.7498 173.53 27.4129 173.512 27.0761C173.526 26.7247 173.468 26.374 173.342 26.0451C173.216 25.7162 173.025 25.4157 172.779 25.1614C172.012 24.5258 171.116 24.0625 170.152 23.8035L168.409 23.206C166.123 22.4365 164.493 21.5855 163.519 20.6531C163.052 20.2287 162.682 19.712 162.43 19.1365C162.178 18.5611 162.051 17.9397 162.058 17.3126C162.052 16.5037 162.256 15.7068 162.648 14.9973C163.053 14.2837 163.599 13.658 164.253 13.1573C164.983 12.6175 165.802 12.2085 166.675 11.9487C167.655 11.6423 168.677 11.4911 169.706 11.5006C170.673 11.5014 171.638 11.5763 172.594 11.7246C173.753 11.9031 174.899 12.1618 176.023 12.4986L176.393 18.2835H176.023C175.66 17.3883 175.2 16.5346 174.651 15.7374C174.165 15.0033 173.605 14.3208 172.977 13.7004C172.442 13.1776 171.833 12.736 171.167 12.39C170.617 12.0851 170 11.9195 169.369 11.908C169.046 11.9011 168.725 11.9575 168.423 12.074C168.122 12.1905 167.847 12.3649 167.614 12.5869C167.378 12.8013 167.19 13.0628 167.064 13.3543C166.937 13.6457 166.874 13.9604 166.88 14.2776C166.88 15.6898 168.012 16.758 170.275 17.4823L172.697 18.2563Z" fill="#2F2F2F"></path></svg> 