<?xml version="1.0" encoding="UTF-8"?> <svg xmlns="http://www.w3.org/2000/svg" width="148" height="38" viewBox="0 0 148 38" fill="none"><path d="M12.3781 16.2282H8.80984V24.349C8.80984 25.7271 9.59731 26.0224 10.9016 26.0224C11.3937 26.0224 11.8859 25.9239 12.3781 25.9239V30.1812C11.2953 30.1812 10.1879 30.3781 9.20358 30.3781C4.25727 30.3781 2.95302 28.9016 2.95302 24.0291V16.2036H0V12.34H2.97763V7H8.83445V12.34H12.4027V16.2282H12.3781Z" fill="#2F2F2F"></path><path fill-rule="evenodd" clip-rule="evenodd" d="M21.5102 26.8337C19.0247 26.8337 17.6467 25.2588 17.5482 22.7733V22.7487H30.6399C30.9352 16.695 27.7608 11.8472 21.3133 11.8472C16.0471 11.8472 11.6914 15.8337 11.6914 21.2722C11.6914 27.3259 15.6534 30.7957 21.5102 30.7957C25.4722 30.7957 29.3357 28.9993 30.32 24.8405H24.8816C24.291 26.1447 22.8883 26.8337 21.5102 26.8337ZM21.3151 15.8347C23.3084 15.8347 24.6865 17.5081 24.7849 19.5014H17.55C17.8453 17.3112 19.2234 15.8347 21.3151 15.8347Z" fill="#2F2F2F"></path><path d="M43.5156 18.9115C43.5156 17.435 42.1375 16.3276 40.6364 16.3276C37.3634 16.3276 36.8713 19.1083 36.8713 21.5692C36.8713 23.8578 37.8556 26.2202 40.3411 26.2202C42.4328 26.2202 43.4171 25.039 43.7124 23.1441H49.3724C48.8802 27.992 45.2136 30.7728 40.4641 30.7728C35.1241 30.7728 31.0391 27.1061 31.0391 21.6676C31.0391 16.0077 34.6073 11.9473 40.4641 11.9473C44.9183 11.9473 48.8802 14.3343 49.274 18.9853H43.5156V18.9115Z" fill="#2F2F2F"></path><path d="M49.5402 7.02539H55.3971V14.8509H55.4955C56.3814 13.0791 58.7684 11.8733 60.934 11.8733C66.8892 11.8733 67.3814 16.229 67.3814 18.8129V30.305H61.5246V21.692C61.5246 19.2066 61.8199 16.7457 58.5469 16.7457C56.3568 16.7457 55.3724 18.6406 55.3724 20.6093V30.3296H49.5156V7.02539H49.5402Z" fill="#2F2F2F"></path><path d="M67.8723 12.3666H73.5322V15.5411H73.6307C74.5166 13.2525 76.5098 12.0713 78.9707 12.0713C79.4629 12.0713 79.8566 12.0713 80.3488 12.1697V17.5098C79.5613 17.3129 78.8723 17.2145 78.0602 17.2145C75.181 17.2145 73.7045 19.2077 73.7045 21.4717V30.2816H67.8477C67.8723 30.3062 67.8723 12.3666 67.8723 12.3666Z" fill="#2F2F2F"></path><path fill-rule="evenodd" clip-rule="evenodd" d="M80.3729 17.8763C80.3721 17.8927 80.3714 17.9091 80.3707 17.9256L80.3461 17.8763H80.3729ZM80.3729 17.8763H85.6861C85.9814 16.2768 87.0888 15.5878 88.6637 15.5878C89.968 15.5878 91.5429 16.1045 91.5429 17.4826C91.5429 18.5654 90.9523 18.9591 89.968 19.156C89.1802 19.3326 88.3063 19.4556 87.4093 19.5817C83.683 20.1059 79.5586 20.686 79.5586 25.4065C79.5586 29.1716 82.3394 30.845 85.7107 30.845C87.9009 30.845 90.091 30.2298 91.666 28.5564C91.666 29.147 91.7644 29.6392 91.9613 30.2298H97.8181C97.1291 28.8517 97.1291 27.1537 97.1291 25.6772V17.8517C97.1291 12.7824 93.0687 11.8965 88.8114 11.8965C86.8181 11.8965 84.7264 12.2902 83.1514 13.1761C81.5629 14.0559 80.4841 15.5182 80.3729 17.8763ZM91.465 21.9864C91.6619 25.653 90.6775 27.228 87.8968 27.228C86.5925 27.228 85.5097 26.6374 85.5097 25.2593C85.5097 23.8566 86.6171 23.266 87.8968 22.9707C88.3752 22.8112 88.9222 22.7002 89.4561 22.5918C90.2404 22.4326 90.9965 22.2792 91.465 21.9864Z" fill="#2F2F2F"></path><path fill-rule="evenodd" clip-rule="evenodd" d="M110.469 30.3045H116.03V7.0249H110.173V14.4567H110.075C108.894 12.7587 107.22 11.9712 105.03 11.9712C99.9855 11.9712 97.5 16.3269 97.5 20.9779C97.5 25.9488 99.8624 30.7967 105.522 30.7967C107.466 30.8213 109.312 29.8616 110.37 28.2128H110.469V30.3045ZM106.927 26.3414C104.245 26.3414 103.359 23.6837 103.359 21.1982C103.359 18.9096 104.245 16.3257 106.927 16.4488C109.511 16.4488 110.397 18.8112 110.397 21.3951C110.397 23.6591 109.806 26.3414 106.927 26.3414Z" fill="#2F2F2F"></path><path fill-rule="evenodd" clip-rule="evenodd" d="M116.935 17.8763C116.935 17.8927 116.934 17.9091 116.933 17.9256H116.909V17.8763H116.935ZM116.935 17.8763H122.249C122.544 16.2768 123.651 15.5878 125.226 15.5878C126.53 15.5878 128.105 16.1045 128.105 17.4826C128.105 18.5654 127.515 18.9591 126.53 19.156C125.743 19.3326 124.869 19.4556 123.972 19.5817C120.245 20.1059 116.121 20.686 116.121 25.4065C116.121 29.1716 118.902 30.845 122.273 30.845C124.365 30.845 126.654 30.2298 128.228 28.5564C128.228 29.147 128.327 29.6392 128.524 30.2298H134.381C133.692 28.8517 133.692 27.1538 133.692 25.6773V25.6772V17.8517C133.692 12.7824 129.631 11.8965 125.374 11.8965C123.381 11.8965 121.289 12.2902 119.714 13.1761C118.125 14.0559 117.047 15.5182 116.935 17.8763ZM128.033 21.9864C128.23 25.653 127.246 27.228 124.465 27.228C123.161 27.228 121.98 26.6374 122.078 25.2593C122.078 23.8566 123.185 23.266 124.465 22.9707C124.943 22.8112 125.49 22.7002 126.024 22.5918C126.809 22.4326 127.565 22.2792 128.033 21.9864Z" fill="#2F2F2F"></path><path d="M134.559 12.3666H140.219V15.5411H140.317C141.203 13.2525 143.196 12.0713 145.657 12.0713C146.149 12.0713 147.134 12.0713 147.65 12.1697V17.5098C146.863 17.3129 145.657 17.2145 144.87 17.2145C141.99 17.2145 140.514 19.2077 140.514 21.4717V30.2816H134.657V12.342H134.559V12.3666Z" fill="#2F2F2F"></path><path d="M141.797 24.4468H147.654V30.3036H141.797V24.4468Z" fill="#2F2F2F"></path></svg> 