<?xml version="1.0" encoding="UTF-8"?> <svg xmlns="http://www.w3.org/2000/svg" width="82" height="38" viewBox="0 0 82 38" fill="none"><path d="M16.7112 37.0019C16.4372 36.8913 16.1411 36.8868 15.856 36.7984C14.8949 36.5199 14.0746 35.8877 13.56 35.0289C13.2089 34.4105 12.997 33.7228 12.939 33.0139C12.9082 32.7097 12.8949 32.4039 12.8992 32.0982C12.8992 29.4638 12.8992 26.8273 12.8992 24.193C12.8992 23.9961 12.9346 23.9298 13.1512 23.932C14.2973 23.9438 15.445 23.9438 16.5941 23.932C16.8151 23.932 16.8858 23.9674 16.8858 24.2107C16.8725 26.615 16.8659 29.0215 16.8858 31.4258C16.8858 32.065 17.0117 32.6998 17.5332 33.1621C17.7789 33.3808 18.0894 33.5129 18.4172 33.5381C19.4536 33.6266 20.3265 33.224 21.1087 32.5781C21.1563 32.5341 21.1922 32.4789 21.213 32.4175C21.2339 32.356 21.239 32.2904 21.2281 32.2265C21.2281 29.5722 21.2281 26.918 21.2281 24.2638C21.2281 23.9939 21.301 23.9231 21.5684 23.9253C22.7241 23.9408 23.8821 23.9253 25.0378 23.9253C25.2256 23.9253 25.2588 23.974 25.2588 24.1465C25.2588 28.3284 25.2588 32.5103 25.2588 36.6922C25.2588 36.8758 25.2212 36.9289 25.0378 36.9267C23.8533 36.9267 22.6711 36.9267 21.4866 36.9267C21.3297 36.9267 21.2656 36.8979 21.2811 36.7276C21.2944 36.3427 21.2811 35.9556 21.2811 35.5376C20.673 36.076 19.966 36.4907 19.1995 36.7586C18.9015 36.8688 18.5886 36.9329 18.2713 36.9488C18.2249 36.9488 18.163 36.9267 18.1432 37.0019H16.7112Z" fill="#2F2F2F"></path><path d="M4.41796 37.0026C4.19697 36.8832 3.97599 36.9384 3.74396 36.9075C2.80624 36.7729 1.88449 36.5439 0.992726 36.224C0.535292 36.0648 0.409332 35.8392 0.43143 35.3725C0.473417 34.4877 0.43143 33.5853 0.444689 32.6939C0.444689 32.6275 0.404912 32.5368 0.480046 32.5015C0.555181 32.4661 0.619265 32.5015 0.701029 32.5501C1.50987 32.9859 2.36634 33.3266 3.25338 33.5654C4.1228 33.8047 5.02418 33.9069 5.92506 33.8684C6.10583 33.8745 6.28593 33.8435 6.45429 33.7773C6.62264 33.7111 6.77569 33.6111 6.90401 33.4835C7.27747 33.0788 7.14709 32.6297 6.73606 32.3776C6.3646 32.185 5.96079 32.0628 5.54497 32.0171C4.72748 31.8862 3.91924 31.703 3.12521 31.4685C2.51782 31.3001 1.94118 31.0358 1.41701 30.6855C0.851297 30.2807 0.380604 29.8008 0.1773 29.1151C-0.0253388 28.4297 -0.0466597 27.7033 0.115425 27.0072C0.427011 25.6314 1.33083 24.7953 2.58601 24.2534C3.291 23.9643 4.03641 23.786 4.79584 23.7248C5.51615 23.6724 6.23981 23.6887 6.95705 23.7735C7.79083 23.8654 8.6147 24.032 9.41879 24.2711C9.67955 24.3397 9.91821 24.4923 10.1768 24.5697C10.2734 24.5915 10.3581 24.6495 10.4136 24.7317C10.469 24.8139 10.491 24.9142 10.4751 25.0121C10.4574 25.9853 10.4751 26.9585 10.4751 27.9318C10.4751 28.1198 10.4751 28.206 10.2541 28.0799C9.31012 27.5698 8.29809 27.1974 7.24874 26.974C6.58887 26.8052 5.90489 26.7513 5.22675 26.8148C4.80467 26.8634 4.3605 26.9364 4.13731 27.3965C4.10067 27.484 4.0832 27.5783 4.08608 27.6732C4.08896 27.768 4.11213 27.8611 4.15402 27.9462C4.1959 28.0313 4.25554 28.1065 4.3289 28.1665C4.40226 28.2266 4.48763 28.2702 4.57927 28.2945C5.17775 28.4799 5.7884 28.6232 6.4068 28.7236C7.6001 28.9758 8.78899 29.2323 9.82319 29.9401C10.2161 30.1977 10.5428 30.5445 10.7767 30.9523C11.0105 31.3601 11.1449 31.8173 11.169 32.2869C11.2377 33.0233 11.1064 33.7646 10.7889 34.4324C10.3182 35.4344 9.49834 36.0537 8.50171 36.4695C7.84922 36.7517 7.1519 36.9157 6.44216 36.9539C6.42448 36.9539 6.40901 36.9849 6.39133 37.0026H4.41796Z" fill="#2F2F2F"></path><path d="M78.4433 37.0028C78.105 36.939 77.7701 36.8578 77.4401 36.7595C76.2909 36.3592 75.4512 35.6381 75.0468 34.4481C74.8619 33.8934 74.7541 33.3158 74.7264 32.7317C74.6269 30.9866 74.7087 29.2392 74.6844 27.4918C74.6844 27.3348 74.6535 27.2817 74.4855 27.2861C73.9198 27.2972 73.3541 27.2861 72.7884 27.2861C72.6558 27.2861 72.6094 27.2574 72.6094 27.1136C72.6094 26.1315 72.6094 25.1495 72.6094 24.1696C72.6094 23.9683 72.6933 23.9351 72.8657 23.9484C73.4027 23.9484 73.9419 23.9484 74.4811 23.9484C74.6446 23.9484 74.6866 23.9108 74.6844 23.7449C74.6844 22.8005 74.6844 21.8538 74.6844 20.9071C74.6844 20.7412 74.6954 20.6859 74.9054 20.6395C75.5529 20.5112 76.207 20.4183 76.8544 20.3011C77.3892 20.1949 77.9373 20.1175 78.4765 20.0179C78.6422 19.987 78.7195 20.0179 78.7173 20.2391C78.7063 21.3981 78.7173 22.5572 78.7173 23.714C78.7173 23.913 78.7637 23.9617 78.9604 23.9595C79.9769 23.9595 80.9912 23.9595 82.0078 23.9595V27.3038C80.9912 27.3038 79.9769 27.3038 78.9604 27.3038C78.7615 27.3038 78.7151 27.3503 78.7173 27.5493C78.7262 28.9207 78.7262 30.2913 78.7173 31.6612C78.7092 31.9823 78.7487 32.3028 78.8344 32.6123C79.0245 33.2537 79.3493 33.5678 79.9217 33.6209C80.3545 33.6483 80.7884 33.5904 81.199 33.4506C81.4752 33.3665 81.7161 33.1896 82.0078 33.1475V36.3857C81.6101 36.5717 81.1986 36.7262 80.7769 36.848C80.4794 36.8909 80.1844 36.9492 79.893 37.0227L78.4433 37.0028Z" fill="#2F2F2F"></path><path d="M31.3382 25.016C32.0205 24.4402 32.8256 24.0286 33.6917 23.8127C34.4814 23.6302 35.3007 23.6166 36.096 23.7729C36.7858 23.8997 37.4383 24.1802 38.0052 24.5935C38.3304 24.8398 38.612 25.1388 38.8383 25.4782C39.7337 24.6505 40.8326 24.0757 42.0227 23.8127C42.8151 23.6439 43.633 23.6341 44.4292 23.784C45.2923 23.9419 46.09 24.3503 46.723 24.9585C46.8551 25.0945 46.9742 25.2426 47.0788 25.4008C47.1429 25.4893 47.1804 25.5048 47.2799 25.4274C47.8092 25.0076 48.3819 24.6458 48.9881 24.348C49.6273 24.0428 50.3091 23.8363 51.0101 23.7353C52.1169 23.5695 53.2478 23.7584 54.2408 24.275C54.7203 24.5018 55.1295 24.8541 55.4253 25.2947C55.5645 25.5158 55.6463 25.4097 55.7568 25.3146C56.1741 24.9442 56.6394 24.6317 57.1401 24.3856C57.8085 24.0399 58.5327 23.8152 59.2792 23.722C60.0291 23.6158 60.7925 23.6571 61.5266 23.8437C62.0863 23.9799 62.6097 24.2362 63.0607 24.5948C63.5117 24.9534 63.8795 25.4058 64.1386 25.9206C64.4261 26.4775 64.589 27.0904 64.616 27.7166C64.7463 30.7358 64.6381 33.7572 64.6756 36.7853C64.6756 36.9158 64.6535 36.9689 64.5055 36.9666C63.1796 36.9666 61.8736 36.9666 60.5565 36.9666C60.3355 36.9666 60.3819 36.8361 60.3819 36.7145C60.3819 34.2107 60.3819 31.7068 60.3687 29.1942C60.3687 28.7783 60.3687 28.3382 60.1212 27.9467C59.7234 27.3185 59.0693 27.177 58.3975 27.2676C57.7238 27.3833 57.0896 27.6653 56.5523 28.0882C56.4886 28.1244 56.4361 28.1774 56.4002 28.2413C56.3644 28.3052 56.3467 28.3777 56.349 28.451C56.349 29.4507 56.3114 30.4417 56.3623 31.4481C56.4484 33.1954 56.3623 34.9428 56.4087 36.6902C56.4087 36.8804 56.3844 36.96 56.1612 36.9556C55.0319 36.9423 53.9005 36.9556 52.7691 36.9556C52.5592 36.9556 52.5326 36.8914 52.5326 36.7056C52.5326 34.308 52.5326 31.9125 52.5326 29.5149C52.5326 28.8513 52.4067 28.2143 51.8852 27.7233C51.3636 27.2322 50.8001 27.1836 50.1748 27.2566C49.4389 27.3406 48.8489 27.7653 48.2522 28.159C48.1262 28.2431 48.1373 28.3625 48.1373 28.4864C48.1373 31.1922 48.1373 33.8981 48.1373 36.6039C48.1373 36.9512 48.1373 36.9512 47.7926 36.9512C46.6876 36.9512 45.6004 36.9512 44.5065 36.9512C44.3077 36.9512 44.2613 36.9047 44.2635 36.7056C44.2635 34.3095 44.2635 31.9133 44.2635 29.5171C44.2765 29.1838 44.219 28.8516 44.0949 28.5421C43.9707 28.2326 43.7827 27.9528 43.5431 27.7211C43.2588 27.4735 42.9056 27.3191 42.531 27.2787C41.8037 27.1645 41.0593 27.3043 40.4228 27.6746C40.1399 27.8294 39.8792 28.0285 39.6096 28.2099C39.519 28.2718 39.5499 28.3691 39.5499 28.4532C39.5499 29.0062 39.5853 29.5591 39.5919 30.1121C39.6162 32.304 39.5919 34.4982 39.6052 36.6902C39.6052 36.8892 39.5698 36.9556 39.3532 36.9534C38.2233 36.9431 37.0933 36.9431 35.9634 36.9534C35.7424 36.9534 35.6717 36.9158 35.6739 36.6725C35.6849 34.1443 35.696 31.6139 35.6739 29.0858C35.6891 28.6898 35.571 28.3001 35.3386 27.9793C35.1062 27.6585 34.7729 27.425 34.3922 27.3163C33.7611 27.1456 33.0889 27.219 32.5094 27.522C32.1819 27.6862 31.8659 27.8724 31.5636 28.0794C31.4907 28.1212 31.4311 28.1829 31.392 28.2573C31.3529 28.3318 31.3357 28.4158 31.3426 28.4996C31.3426 31.2247 31.3426 33.9475 31.3426 36.6725C31.3426 36.9069 31.2874 36.96 31.0576 36.9556C29.9173 36.9423 28.7792 36.9556 27.639 36.9556C27.4511 36.9556 27.418 36.9069 27.418 36.7344C27.418 32.5496 27.418 28.3662 27.418 24.1843C27.418 23.9963 27.4644 23.9631 27.639 23.9631C28.7969 23.972 29.9541 23.972 31.1106 23.9631C31.2984 23.9631 31.3515 24.0096 31.3316 24.1843C31.3272 24.4387 31.3382 24.7041 31.3382 25.016Z" fill="#2F2F2F"></path><path d="M59.8977 4.59443L61.1042 2.5374L61.2633 2.27197C64.8477 8.47845 68.4195 14.6658 71.9788 20.8339C71.939 20.8597 71.8945 20.8773 71.8478 20.8857C71.8011 20.8941 71.7532 20.893 71.707 20.8826H50.8042C50.7158 20.8826 50.6275 20.8826 50.5391 20.8826C50.5899 20.7897 50.6341 20.6946 50.6871 20.6017C52.4152 17.6068 54.144 14.6119 55.8736 11.6171C56.3288 10.823 56.815 10.0422 57.2326 9.22606C57.5751 8.63992 57.9221 8.0582 58.2602 7.46984C58.8104 6.50547 59.3518 5.54995 59.8977 4.59443Z" fill="#2F2F2F"></path><path d="M57.2315 9.21518C56.8138 10.0314 56.3277 10.8121 55.8724 11.6062C54.1488 14.6025 52.4207 17.5974 50.6882 20.5908C50.6351 20.6837 50.5909 20.7788 50.5401 20.8717H42.7019C42.3881 20.8717 42.5627 20.7102 42.6179 20.6129C43.4282 19.2032 44.2384 17.7957 45.0487 16.3905C46.9241 13.139 48.801 9.88759 50.6793 6.63615C51.4719 5.2589 52.2667 3.88165 53.0637 2.5044C53.1985 2.26994 53.2206 2.28321 53.3599 2.5044L54.4184 4.34245C54.4559 4.41102 54.4802 4.49286 54.5731 4.50834C54.5745 4.5874 54.5991 4.6643 54.6438 4.72953C55.51 6.23065 56.3726 7.72586 57.2315 9.21518Z" fill="#2F2F2F"></path><path d="M5.07579 18.7743C5.25699 18.2257 5.42273 17.7192 5.5951 17.2127C5.88679 16.3523 6.17407 15.4897 6.47903 14.6359C6.85249 13.5963 7.17954 12.5412 7.56626 11.5061C7.80934 10.8558 8.00823 10.179 8.22921 9.51542C8.29108 9.3252 8.37506 9.19028 8.60709 9.23452C8.66805 9.24117 8.72955 9.24117 8.7905 9.23452C9.38716 9.23452 9.39158 9.25442 9.55952 9.83614C9.70537 10.3493 9.891 10.8536 10.0612 11.3601C10.2954 12.0701 10.5473 12.7735 10.7838 13.4813C11.0048 14.1316 11.2412 14.7796 11.4622 15.4299C11.8202 16.4857 12.176 17.5401 12.5295 18.5929C12.5462 18.6308 12.5685 18.6658 12.5958 18.6969C12.7439 18.2545 12.8964 17.7878 13.0378 17.3277C13.3582 16.3412 13.6742 15.3525 13.9991 14.3682C14.1626 13.8772 14.3283 13.3862 14.4808 12.8907C14.6731 12.267 14.9007 11.6521 15.1084 11.0305C15.2896 10.4909 15.4642 9.94895 15.641 9.40925C15.6741 9.30751 15.705 9.22567 15.8465 9.23009C16.2244 9.23009 16.6044 9.24336 16.9845 9.23009C17.1923 9.23009 17.1569 9.34511 17.1215 9.45128C16.7525 10.5572 16.3901 11.6631 16.0034 12.7558C15.6299 13.8131 15.2962 14.8858 14.9184 15.9409C14.5604 16.9406 14.2841 17.9692 13.9239 18.9667C13.7317 19.502 13.5814 20.0527 13.3715 20.5836C13.3229 20.7096 13.2787 20.7495 13.1505 20.7472C12.7792 20.7472 12.4102 20.7472 12.0456 20.7472C11.924 20.7472 11.8931 20.7119 11.8577 20.6013C11.6589 19.9687 11.4556 19.3361 11.2257 18.719C10.87 17.7546 10.5628 16.7725 10.2136 15.8082C9.80923 14.7022 9.44903 13.572 9.07115 12.455C8.99823 12.2316 8.92088 11.9861 8.83249 11.7317C8.70465 12.0191 8.59612 12.3146 8.50765 12.6164C8.29771 13.1606 8.14745 13.7224 7.95961 14.2842C7.72758 15.003 7.46903 15.7064 7.22374 16.4098C6.88122 17.4051 6.5409 18.4005 6.19175 19.3936C6.05417 19.7507 5.93759 20.1155 5.8426 20.4862C5.83927 20.531 5.82632 20.5746 5.80463 20.6139C5.78295 20.6532 5.75304 20.6873 5.71695 20.714C5.68086 20.7407 5.63945 20.7592 5.59553 20.7684C5.55162 20.7776 5.50624 20.7772 5.46251 20.7672C5.12768 20.7461 4.79186 20.7461 4.45704 20.7672C4.4316 20.7729 4.40525 20.7735 4.37959 20.7687C4.35393 20.764 4.32951 20.7541 4.3078 20.7396C4.28609 20.7251 4.26756 20.7064 4.25332 20.6845C4.23909 20.6626 4.22945 20.6381 4.225 20.6123C3.92447 19.6656 3.60846 18.7234 3.28583 17.7834C3.00739 16.9738 2.74442 16.1554 2.45935 15.3503C2.1323 14.4191 1.82955 13.4879 1.51797 12.5612C1.1644 11.5083 0.819663 10.451 0.459462 9.40041C0.417475 9.28318 0.446203 9.24336 0.572163 9.24336C0.976561 9.24336 1.38317 9.24336 1.78978 9.24336C2.0638 9.24336 2.01076 9.49773 2.07263 9.63707C2.27815 10.1856 2.44831 10.743 2.63172 11.3026C2.81514 11.8622 2.98971 12.4085 3.18197 12.9726C3.414 13.6361 3.64161 14.324 3.86038 15.0008C4.20733 16.0846 4.57637 17.1618 4.92994 18.2434C4.98077 18.4005 5.02717 18.5664 5.07579 18.7743Z" fill="#2F2F2F"></path><path d="M32.7708 10.4207C33.2055 10.0867 33.6864 9.81768 34.1984 9.62222C34.6272 9.46503 35.0718 9.35453 35.5243 9.29265C36.3604 9.17719 37.212 9.26676 38.0059 9.55365C38.9967 9.89321 39.8562 10.5353 40.4632 11.3895C40.9875 12.1068 41.3268 12.9425 41.451 13.8225C41.5925 14.7452 41.5474 15.6869 41.3184 16.5918C41.0439 17.7017 40.4427 18.7034 39.5926 19.4672C38.8944 20.091 38.0408 20.5144 37.122 20.6926C36.3374 20.8563 35.5286 20.8676 34.7398 20.7258C34.0522 20.6103 33.3832 20.4027 32.7509 20.1086C32.7175 20.0922 32.68 20.086 32.6431 20.0907C32.6062 20.0954 32.5714 20.1109 32.5432 20.1352C32.1896 20.321 31.8383 20.5156 31.4913 20.7147C31.3455 20.7987 31.2814 20.7833 31.2947 20.6041C31.2947 20.5687 31.2947 20.5333 31.2947 20.4979C31.2947 14.9108 31.2947 9.32361 31.2947 3.73646C31.2947 3.49315 31.361 3.44228 31.5842 3.45555C31.9109 3.47435 32.2385 3.47435 32.5653 3.45555C32.7576 3.44449 32.7863 3.51085 32.7863 3.69001C32.7686 5.91956 32.7708 8.1469 32.7708 10.4207ZM32.7708 15.0435C32.7708 16.3485 32.7708 17.4367 32.7708 18.5227C32.7631 18.6088 32.7865 18.6948 32.8368 18.765C32.8871 18.8352 32.9609 18.8851 33.0449 18.9054C33.7514 19.2027 34.4947 19.4036 35.2547 19.5026C35.9067 19.5786 36.5674 19.5222 37.1971 19.3367C38.9827 18.7904 39.9152 17.2001 40.0699 15.5765C40.1771 14.6774 40.0405 13.7659 39.6743 12.9378C39.4675 12.4452 39.1614 12.0006 38.7751 11.6318C38.3887 11.263 37.9305 10.978 37.4291 10.7945C36.4479 10.472 35.3865 10.4907 34.4172 10.8476C33.8523 11.0715 33.3293 11.3893 32.8703 11.7876C32.8172 11.8319 32.7399 11.8695 32.7465 11.9668C32.8062 13.0572 32.7487 14.161 32.7708 15.0435Z" fill="#2F2F2F"></path><path d="M66.735 30.4488C66.735 28.3608 66.735 26.2728 66.735 24.187C66.735 23.9901 66.7769 23.9393 66.978 23.9415C68.1515 23.9415 69.3271 23.9415 70.5005 23.9415C70.7215 23.9415 70.7723 24.0034 70.7723 24.2135C70.7723 28.388 70.7723 32.5618 70.7723 36.7349C70.7723 36.9096 70.7303 36.9561 70.5513 36.9561C69.358 36.9561 68.1669 36.9561 66.9736 36.9561C66.7747 36.9561 66.7283 36.9096 66.7305 36.7105C66.735 34.6225 66.735 32.5346 66.735 30.4488Z" fill="#2F2F2F"></path><path d="M24.2149 15.4539C22.8116 15.4539 21.4084 15.4539 20.0029 15.4539C19.8129 15.4539 19.751 15.507 19.782 15.6884C19.9698 16.7147 20.3521 17.6436 21.13 18.3691C21.7448 18.9358 22.5139 19.3068 23.3398 19.4353C24.4875 19.643 25.6713 19.4941 26.7319 19.0084C27.145 18.8233 27.5381 18.5965 27.9053 18.3315C27.9561 18.2939 28.0003 18.2431 28.0666 18.2762C28.1329 18.3094 28.1042 18.3824 28.1042 18.4377C28.1042 18.8181 28.1042 19.1986 28.1042 19.579C28.111 19.6353 28.1002 19.6924 28.0733 19.7423C28.0464 19.7922 28.0047 19.8325 27.9539 19.8577C27.1618 20.2924 26.2993 20.5837 25.406 20.7181C24.8892 20.8044 24.3647 20.8348 23.8414 20.8088C22.6539 20.7514 21.5086 20.3503 20.5443 19.6542C19.6423 18.9832 18.9736 18.0454 18.6328 16.9735C18.4981 16.5468 18.4135 16.1059 18.3809 15.6596C18.3525 15.1643 18.3584 14.6677 18.3986 14.1732C18.421 13.9078 18.4736 13.6459 18.5555 13.3924C18.7776 12.5119 19.2107 11.6989 19.8173 11.0235C20.4925 10.2657 21.3718 9.71886 22.3498 9.4487C23.2006 9.2017 24.1004 9.17581 24.964 9.3735C25.9809 9.59505 26.8974 10.1435 27.5738 10.9351C27.9835 11.4268 28.2847 11.9997 28.4577 12.6161C28.6721 13.3444 28.7691 14.1023 28.745 14.8611C28.745 15.0381 28.6765 15.2017 28.6809 15.3787C28.6853 15.5556 28.5483 15.4583 28.4798 15.4605C27.7285 15.4605 26.9794 15.4605 26.228 15.4605L24.2149 15.4539ZM23.5519 14.233C24.7165 14.233 25.8811 14.233 27.0434 14.233C27.2644 14.233 27.3374 14.1688 27.3042 13.9565C27.2765 13.6488 27.2233 13.344 27.1451 13.0452C26.9586 12.3341 26.5431 11.7044 25.9628 11.2536C25.5534 10.9505 25.0848 10.7372 24.5876 10.6274C24.0904 10.5177 23.5756 10.514 23.0768 10.6166C22.5852 10.6961 22.1147 10.8743 21.6936 11.1403C21.2724 11.4064 20.9094 11.7549 20.6261 12.1649C20.2582 12.6977 20.0018 13.2997 19.8726 13.9344C19.8085 14.2108 19.8726 14.2285 20.1112 14.2263C21.2625 14.2285 22.4094 14.233 23.5563 14.233H23.5519Z" fill="#2F2F2F"></path><path d="M57.2282 9.21461C56.3664 7.72677 55.5053 6.23892 54.6449 4.75108C54.6003 4.68584 54.5757 4.60895 54.5742 4.52989L57.1884 0.0420254C57.1991 0.02647 57.2117 0.0123468 57.226 0C57.3254 0.0552965 57.3542 0.16589 57.405 0.254364C58.1843 1.61834 58.9629 2.98306 59.7408 4.34852C59.7894 4.43257 59.8447 4.5122 59.8955 4.59403C59.3497 5.54956 58.8082 6.50508 58.258 7.46945C57.9199 8.04675 57.573 8.62847 57.2282 9.21461Z" fill="#2F2F2F"></path></svg> 