<?xml version="1.0" encoding="UTF-8"?> <svg xmlns="http://www.w3.org/2000/svg" width="157" height="38" viewBox="0 0 157 38" fill="none"><path fill-rule="evenodd" clip-rule="evenodd" d="M18.272 37.3456C28.3629 37.3456 36.544 28.985 36.544 18.6728C36.544 8.35997 28.3629 0 18.272 0C8.18054 0 0 8.35934 0 18.6728C0 28.985 8.17992 37.3456 18.272 37.3456ZM15.5328 18.6728H20.7094C21.0694 18.6728 21.4258 18.6004 21.7583 18.4596C22.0908 18.3188 22.393 18.1125 22.6475 17.8524C22.902 17.5923 23.1039 17.2836 23.2416 16.9438C23.3793 16.6039 23.4502 16.2397 23.4502 15.8719C23.4502 15.5041 23.3793 15.1398 23.2416 14.8C23.1039 14.4602 22.902 14.1514 22.6475 13.8913C22.393 13.6312 22.0908 13.4249 21.7583 13.2842C21.4258 13.1434 21.0694 13.071 20.7094 13.071H15.5328V18.6728ZM11.8784 9.33641H20.7094C24.2414 9.33641 27.1046 12.2625 27.1046 15.8719C27.1046 19.4813 24.2414 22.4074 20.7094 22.4074H15.5328V28.0092H11.8784V9.33641Z" fill="#2F2F2F"></path><path d="M55.7404 16.3903C55.7404 15.3628 54.968 14.7402 53.9645 14.7402H51.2743V18.0213H53.9651C54.9687 18.0213 55.741 17.3987 55.741 16.3903H55.7404ZM48.7266 24.8966V12.4482H54.3225C56.9246 12.4482 58.3406 14.2453 58.3406 16.3903C58.3406 18.5169 56.9065 20.3133 54.3225 20.3133H51.2743V24.8966H48.7272H48.7266ZM59.8916 24.8966V15.8214H62.1681V17.013C62.7961 16.2428 63.8553 15.6017 64.932 15.6017V17.8745C64.7696 17.8381 64.5727 17.8202 64.304 17.8202C63.5504 17.8202 62.5449 18.2595 62.1681 18.8292V24.8966H59.891H59.8916ZM72.5958 20.2399C72.5958 18.8649 71.8047 17.6733 70.3699 17.6733C68.952 17.6733 68.164 18.8649 68.164 20.2405C68.164 21.6333 68.952 22.8249 70.3699 22.8249C71.8047 22.8249 72.5952 21.6333 72.5952 20.2399M65.795 20.2399C65.795 17.7289 67.5173 15.6017 70.3699 15.6017C73.2407 15.6017 74.9629 17.7282 74.9629 20.2399C74.9629 22.7515 73.2407 24.8966 70.3699 24.8966C67.5173 24.8966 65.795 22.7515 65.795 20.2399ZM82.6292 21.8166V18.6817C82.2523 18.0941 81.4275 17.6733 80.6732 17.6733C79.3647 17.6733 78.4673 18.7181 78.4673 20.2405C78.4673 21.7795 79.3647 22.8249 80.6732 22.8249C81.4275 22.8249 82.2523 22.4035 82.6292 21.8159V21.8166ZM82.6292 24.8966V23.5402C81.9468 24.4195 81.015 24.8966 79.9558 24.8966C77.7856 24.8966 76.1171 23.2106 76.1171 20.2399C76.1171 17.3623 77.75 15.6017 79.9558 15.6017C80.9782 15.6017 81.9468 16.0423 82.6292 16.9581V12.4482H84.925V24.8966H82.6292ZM93.04 24.8966V23.558C92.4488 24.2184 91.4084 24.8966 89.9905 24.8966C88.0895 24.8966 87.1928 23.8333 87.1928 22.1097V15.8214H89.4699V21.1933C89.4699 22.422 90.0979 22.8249 91.0665 22.8249C91.9451 22.8249 92.6457 22.33 93.04 21.8159V15.8214H95.3183V24.8966H93.04ZM97.0293 20.2399C97.0293 17.5271 98.9665 15.6017 101.622 15.6017C103.398 15.6017 104.474 16.3903 105.049 17.1969L103.559 18.6261C103.147 18.0028 102.519 17.6733 101.73 17.6733C100.348 17.6733 99.3802 18.7002 99.3802 20.2405C99.3802 21.7795 100.348 22.8249 101.73 22.8249C102.519 22.8249 103.147 22.4584 103.559 21.853L105.049 23.2834C104.474 24.09 103.398 24.8966 101.622 24.8966C98.9665 24.8966 97.0293 22.9718 97.0293 20.2399ZM107.008 22.4584V17.8566H105.573V15.8214H107.008V13.401H109.287V15.8214H111.043V17.8566H109.287V21.8351C109.287 22.4035 109.572 22.8249 110.075 22.8249C110.415 22.8249 110.74 22.6966 110.864 22.5503L111.349 24.3276C111.009 24.6405 110.398 24.8966 109.447 24.8966C107.851 24.8966 107.008 24.0536 107.008 22.4584M125.637 24.8966V19.5246H119.986V24.8966H117.44V12.4482H119.986V17.2512H125.637V12.4489H128.202V24.8966H125.637ZM136.355 24.8966V23.558C135.764 24.2184 134.723 24.8966 133.306 24.8966C131.404 24.8966 130.508 23.8333 130.508 22.1097V15.8214H132.785V21.1933C132.785 22.422 133.413 22.8249 134.382 22.8249C135.261 22.8249 135.961 22.33 136.355 21.8159V15.8214H138.634V24.8966H136.355ZM146.746 24.8966V19.3241C146.746 18.0954 146.12 17.6739 145.15 17.6739C144.253 17.6739 143.572 18.1874 143.177 18.7008V24.8972H140.9V15.8214H143.177V16.9581C143.734 16.2984 144.81 15.6017 146.209 15.6017C148.128 15.6017 149.043 16.7013 149.043 18.4243V24.8966H146.747H146.746ZM151.758 22.4584V17.8566H150.324V15.8214H151.759V13.401H154.038V15.8214H155.795V17.8566H154.038V21.8351C154.038 22.4035 154.324 22.8249 154.826 22.8249C155.167 22.8249 155.491 22.6966 155.616 22.5503L156.1 24.3276C155.76 24.6405 155.149 24.8966 154.198 24.8966C152.602 24.8966 151.759 24.0536 151.759 22.4584" fill="#2F2F2F"></path></svg> 