<?xml version="1.0" encoding="UTF-8"?> <svg xmlns="http://www.w3.org/2000/svg" viewBox="0 0 256 256"><path fill="#fff" d="M-20-20h296v296H-20z"></path><path d="M12 12h8v8h-8z"></path><path d="M12 20h8v8h-8zM12 28h8v8h-8zM12 36h8v8h-8zM12 44h8v8h-8zM12 52h8v8h-8zM12 60h8v8h-8zM12 76h8v8h-8zM12 84h8v8h-8zM12 100h8v8h-8zM12 108h8v8h-8zM12 116h8v8h-8zM12 124h8v8h-8zM12 132h8v8h-8zM12 148h8v8h-8zM12 164h8v8h-8zM12 172h8v8h-8zM12 188h8v8h-8zM12 196h8v8h-8zM12 204h8v8h-8zM12 212h8v8h-8zM12 220h8v8h-8zM12 228h8v8h-8zM12 236h8v8h-8zM20 12h8v8h-8zM20 60h8v8h-8zM20 76h8v8h-8zM20 84h8v8h-8zM20 92h8v8h-8zM20 108h8v8h-8zM20 124h8v8h-8zM20 132h8v8h-8zM20 156h8v8h-8zM20 164h8v8h-8zM20 188h8v8h-8zM20 236h8v8h-8zM28 12h8v8h-8zM28 28h8v8h-8zM28 36h8v8h-8zM28 44h8v8h-8zM28 60h8v8h-8zM28 76h8v8h-8zM28 84h8v8h-8zM28 100h8v8h-8zM28 108h8v8h-8zM28 124h8v8h-8zM28 132h8v8h-8zM28 164h8v8h-8zM28 188h8v8h-8zM28 204h8v8h-8zM28 212h8v8h-8zM28 220h8v8h-8zM28 236h8v8h-8zM36 12h8v8h-8zM36 28h8v8h-8zM36 36h8v8h-8zM36 44h8v8h-8zM36 60h8v8h-8zM36 76h8v8h-8zM36 100h8v8h-8zM36 116h8v8h-8zM36 132h8v8h-8zM36 148h8v8h-8zM36 156h8v8h-8zM36 188h8v8h-8zM36 204h8v8h-8zM36 212h8v8h-8zM36 220h8v8h-8zM36 236h8v8h-8zM44 12h8v8h-8zM44 28h8v8h-8zM44 36h8v8h-8zM44 44h8v8h-8zM44 60h8v8h-8zM44 84h8v8h-8zM44 100h8v8h-8zM44 108h8v8h-8zM44 124h8v8h-8zM44 140h8v8h-8zM44 188h8v8h-8zM44 204h8v8h-8zM44 212h8v8h-8zM44 220h8v8h-8zM44 236h8v8h-8zM52 12h8v8h-8zM52 60h8v8h-8zM52 84h8v8h-8zM52 92h8v8h-8zM52 108h8v8h-8zM52 116h8v8h-8zM52 124h8v8h-8zM52 148h8v8h-8zM52 164h8v8h-8zM52 188h8v8h-8zM52 236h8v8h-8zM60 12h8v8h-8zM60 20h8v8h-8zM60 28h8v8h-8zM60 36h8v8h-8zM60 44h8v8h-8zM60 52h8v8h-8zM60 60h8v8h-8zM60 76h8v8h-8zM60 92h8v8h-8zM60 108h8v8h-8zM60 124h8v8h-8zM60 140h8v8h-8zM60 156h8v8h-8zM60 172h8v8h-8zM60 188h8v8h-8zM60 196h8v8h-8zM60 204h8v8h-8zM60 212h8v8h-8zM60 220h8v8h-8zM60 228h8v8h-8zM60 236h8v8h-8zM68 84h8v8h-8zM68 92h8v8h-8zM68 100h8v8h-8zM68 108h8v8h-8zM68 124h8v8h-8zM68 156h8v8h-8zM68 164h8v8h-8zM76 12h8v8h-8zM76 28h8v8h-8zM76 36h8v8h-8zM76 44h8v8h-8zM76 60h8v8h-8zM76 76h8v8h-8zM76 84h8v8h-8zM76 108h8v8h-8zM76 116h8v8h-8zM76 148h8v8h-8zM76 156h8v8h-8zM76 164h8v8h-8zM76 172h8v8h-8zM76 180h8v8h-8zM76 212h8v8h-8zM76 220h8v8h-8zM76 228h8v8h-8zM76 236h8v8h-8zM84 20h8v8h-8zM84 28h8v8h-8zM84 36h8v8h-8zM84 92h8v8h-8zM84 100h8v8h-8zM84 108h8v8h-8zM84 132h8v8h-8zM84 140h8v8h-8zM84 156h8v8h-8zM84 164h8v8h-8zM84 188h8v8h-8zM84 212h8v8h-8zM92 12h8v8h-8zM92 20h8v8h-8zM92 28h8v8h-8zM92 36h8v8h-8zM92 52h8v8h-8zM92 60h8v8h-8zM92 68h8v8h-8zM92 76h8v8h-8zM92 84h8v8h-8zM92 92h8v8h-8zM92 100h8v8h-8zM92 108h8v8h-8zM92 124h8v8h-8zM92 140h8v8h-8zM92 180h8v8h-8zM92 188h8v8h-8zM92 204h8v8h-8zM92 220h8v8h-8zM92 228h8v8h-8zM100 20h8v8h-8zM100 44h8v8h-8zM100 52h8v8h-8zM100 76h8v8h-8zM100 92h8v8h-8zM100 116h8v8h-8zM100 124h8v8h-8zM100 132h8v8h-8zM100 164h8v8h-8zM100 196h8v8h-8zM100 204h8v8h-8zM100 212h8v8h-8zM100 228h8v8h-8zM100 236h8v8h-8zM108 12h8v8h-8zM108 20h8v8h-8zM108 36h8v8h-8zM108 44h8v8h-8zM108 60h8v8h-8zM108 68h8v8h-8zM108 76h8v8h-8zM108 84h8v8h-8zM108 92h8v8h-8zM108 108h8v8h-8zM108 116h8v8h-8zM108 140h8v8h-8zM108 196h8v8h-8zM108 204h8v8h-8zM108 228h8v8h-8zM108 236h8v8h-8zM116 20h8v8h-8zM116 28h8v8h-8zM116 36h8v8h-8zM116 100h8v8h-8zM116 108h8v8h-8zM116 140h8v8h-8zM116 148h8v8h-8zM116 156h8v8h-8zM116 196h8v8h-8zM116 204h8v8h-8zM116 236h8v8h-8zM124 12h8v8h-8zM124 20h8v8h-8zM124 28h8v8h-8zM124 60h8v8h-8zM124 68h8v8h-8zM124 84h8v8h-8zM124 92h8v8h-8zM124 132h8v8h-8zM124 140h8v8h-8zM124 148h8v8h-8zM124 180h8v8h-8zM124 188h8v8h-8zM124 196h8v8h-8zM124 220h8v8h-8zM124 228h8v8h-8zM124 236h8v8h-8zM132 28h8v8h-8zM132 36h8v8h-8zM132 44h8v8h-8zM132 108h8v8h-8zM132 116h8v8h-8zM132 132h8v8h-8zM132 140h8v8h-8zM132 148h8v8h-8zM132 156h8v8h-8zM132 164h8v8h-8zM132 172h8v8h-8zM132 204h8v8h-8zM132 212h8v8h-8zM132 228h8v8h-8zM132 236h8v8h-8zM140 36h8v8h-8zM140 60h8v8h-8zM140 116h8v8h-8zM140 156h8v8h-8zM140 164h8v8h-8zM140 172h8v8h-8zM140 204h8v8h-8zM140 212h8v8h-8zM140 220h8v8h-8zM140 228h8v8h-8zM148 12h8v8h-8zM148 36h8v8h-8zM148 44h8v8h-8zM148 68h8v8h-8zM148 76h8v8h-8zM148 92h8v8h-8zM148 108h8v8h-8zM148 116h8v8h-8zM148 148h8v8h-8zM148 156h8v8h-8zM148 164h8v8h-8zM148 172h8v8h-8zM148 180h8v8h-8zM148 204h8v8h-8zM148 212h8v8h-8zM156 12h8v8h-8zM156 20h8v8h-8zM156 28h8v8h-8zM156 60h8v8h-8zM156 68h8v8h-8zM156 76h8v8h-8zM156 116h8v8h-8zM156 132h8v8h-8zM156 164h8v8h-8zM156 172h8v8h-8zM156 220h8v8h-8zM156 236h8v8h-8zM164 12h8v8h-8zM164 28h8v8h-8zM164 36h8v8h-8zM164 44h8v8h-8zM164 52h8v8h-8zM164 68h8v8h-8zM164 84h8v8h-8zM164 116h8v8h-8zM164 124h8v8h-8zM164 132h8v8h-8zM164 140h8v8h-8zM164 172h8v8h-8zM164 188h8v8h-8zM164 236h8v8h-8zM172 28h8v8h-8zM172 52h8v8h-8zM172 60h8v8h-8zM172 84h8v8h-8zM172 132h8v8h-8zM172 140h8v8h-8zM172 156h8v8h-8zM172 172h8v8h-8zM172 180h8v8h-8zM172 188h8v8h-8zM172 196h8v8h-8zM172 204h8v8h-8zM172 212h8v8h-8zM172 220h8v8h-8zM172 228h8v8h-8zM172 236h8v8h-8zM180 76h8v8h-8zM180 84h8v8h-8zM180 92h8v8h-8zM180 140h8v8h-8zM180 148h8v8h-8zM180 156h8v8h-8zM180 172h8v8h-8zM180 204h8v8h-8zM180 212h8v8h-8zM180 220h8v8h-8zM180 228h8v8h-8zM188 12h8v8h-8zM188 20h8v8h-8zM188 28h8v8h-8zM188 36h8v8h-8zM188 44h8v8h-8zM188 52h8v8h-8zM188 60h8v8h-8zM188 84h8v8h-8zM188 92h8v8h-8zM188 116h8v8h-8zM188 124h8v8h-8zM188 172h8v8h-8zM188 188h8v8h-8zM188 204h8v8h-8zM196 12h8v8h-8zM196 60h8v8h-8zM196 108h8v8h-8zM196 148h8v8h-8zM196 164h8v8h-8zM196 172h8v8h-8zM196 204h8v8h-8zM196 220h8v8h-8zM196 228h8v8h-8zM196 236h8v8h-8zM204 12h8v8h-8zM204 28h8v8h-8zM204 36h8v8h-8zM204 44h8v8h-8zM204 60h8v8h-8zM204 76h8v8h-8zM204 84h8v8h-8zM204 92h8v8h-8zM204 132h8v8h-8zM204 140h8v8h-8zM204 156h8v8h-8zM204 172h8v8h-8zM204 180h8v8h-8zM204 188h8v8h-8zM204 196h8v8h-8zM204 204h8v8h-8zM204 212h8v8h-8zM204 228h8v8h-8zM212 12h8v8h-8zM212 28h8v8h-8zM212 36h8v8h-8zM212 44h8v8h-8zM212 60h8v8h-8zM212 76h8v8h-8zM212 108h8v8h-8zM212 140h8v8h-8zM212 148h8v8h-8zM212 172h8v8h-8zM212 180h8v8h-8zM212 188h8v8h-8zM212 196h8v8h-8zM212 212h8v8h-8zM212 228h8v8h-8zM220 12h8v8h-8zM220 28h8v8h-8zM220 36h8v8h-8zM220 44h8v8h-8zM220 60h8v8h-8zM220 76h8v8h-8zM220 92h8v8h-8zM220 108h8v8h-8zM220 116h8v8h-8zM220 124h8v8h-8zM220 148h8v8h-8zM220 156h8v8h-8zM220 164h8v8h-8zM220 172h8v8h-8zM220 180h8v8h-8zM220 204h8v8h-8zM220 220h8v8h-8zM228 12h8v8h-8zM228 60h8v8h-8zM228 92h8v8h-8zM228 116h8v8h-8zM228 124h8v8h-8zM228 132h8v8h-8zM228 140h8v8h-8zM228 148h8v8h-8zM228 180h8v8h-8zM228 188h8v8h-8zM228 228h8v8h-8zM228 236h8v8h-8zM236 12h8v8h-8zM236 20h8v8h-8zM236 28h8v8h-8zM236 36h8v8h-8zM236 44h8v8h-8zM236 52h8v8h-8zM236 60h8v8h-8zM236 76h8v8h-8zM236 84h8v8h-8zM236 100h8v8h-8zM236 116h8v8h-8zM236 124h8v8h-8zM236 180h8v8h-8zM236 196h8v8h-8zM236 204h8v8h-8zM236 212h8v8h-8zM236 220h8v8h-8z"></path></svg> 